<?xml version="1.0" encoding="UTF-8" standalone="no"?>
<!DOCTYPE svg PUBLIC "-//W3C//DTD SVG 1.1//EN" "http://www.w3.org/Graphics/SVG/1.1/DTD/svg11.dtd">
<svg width="100%" height="100%" viewBox="0 0 500 500" version="1.1" xmlns="http://www.w3.org/2000/svg" xmlns:xlink="http://www.w3.org/1999/xlink" xml:space="preserve" xmlns:serif="http://www.serif.com/" style="fill-rule:evenodd;clip-rule:evenodd;stroke-linejoin:round;stroke-miterlimit:2;">
    <g transform="matrix(1.23204,0,0,1.24697,-65.1198,-63.6364)">
        <path d="M458.688,83.111C458.688,65.406 444.14,51.033 426.221,51.033L85.322,51.033C67.403,51.033 52.855,65.406 52.855,83.111L52.855,419.927C52.855,437.631 67.403,452.005 85.322,452.005L426.221,452.005C444.14,452.005 458.688,437.631 458.688,419.927L458.688,83.111Z" style="fill:rgb(241,243,245);"/>
    </g>
    <g id="Layer1" transform="matrix(2.57502,0,0,2.57502,-478.615,-368.701)">
        <g transform="matrix(0.982832,0,0,1.15173,-42.7091,-49.4302)">
            <path d="M351.702,196.209C351.702,192.016 347.713,188.612 342.799,188.612L269.033,188.612C264.119,188.612 260.13,192.016 260.13,196.209L260.13,211.404C260.13,215.597 264.119,219.001 269.033,219.001L342.799,219.001C347.713,219.001 351.702,215.597 351.702,211.404L351.702,196.209Z" style="fill:rgb(22,22,29);"/>
        </g>
        <g transform="matrix(0.982832,0,0,1.15173,-42.7091,60.5081)">
            <path d="M351.702,196.209C351.702,192.016 347.713,188.612 342.799,188.612L269.033,188.612C264.119,188.612 260.13,192.016 260.13,196.209L260.13,211.404C260.13,215.597 264.119,219.001 269.033,219.001L342.799,219.001C347.713,219.001 351.702,215.597 351.702,211.404L351.702,196.209Z" style="fill:rgb(22,22,29);"/>
        </g>
        <g transform="matrix(1.31044,0,0,1.15173,-107.93,5.53642)">
            <path d="M351.702,196.209C351.702,192.016 348.71,188.612 345.025,188.612L266.807,188.612C263.122,188.612 260.13,192.016 260.13,196.209L260.13,211.404C260.13,215.597 263.122,219.001 266.807,219.001L345.025,219.001C348.71,219.001 351.702,215.597 351.702,211.404L351.702,196.209Z" style="fill:rgb(41,175,175);"/>
        </g>
    </g>
</svg>
